# xmcd
# 
# Track frame offsets:
#     150
#     22263
#     39810
#     54269
#     72457
#     92988
#     110120
#     128626
#     148856
#     172412
#     189093
#     203772
#     234722
# 
# Disc length: 3453
# 
# Revision: 1
# Processed by: cddbd v1.5.2PL0 Copyright (c) Steve Scherf et al.
# Submitted via: fre:ac v1.0.17
# 
DISCID=c00d7b0d
DTITLE=อารักษ์ อาภากาศ - ตะเกียงแห่งความรัก
DYEAR=2542
DGENRE=Folk
TTITLE0=ตะเกียงแห่งความรัก
TTITLE1=ผู้นำในดวงใจ
TTITLE2=น้อยก็หนึ่ง
TTITLE3=จะหยิบยอดเมฆ
TTITLE4=กรุงเทพฯ รมควัน
TTITLE5=ฒ.ด.
TTITLE6=เงาดวงจันทร์
TTITLE7=คนเดินดิน
TTITLE8=วิถี
TTITLE9=ไอยรา...ไห้
TTITLE10=โลกนิรันดร์
TTITLE11=อโหสิกรรม
TTITLE12=พุทธทาส
EXTD=
EXTT0=
EXTT1=
EXTT2=
EXTT3=
EXTT4=
EXTT5=
EXTT6=
EXTT7=
EXTT8=
EXTT9=
EXTT10=
EXTT11=
EXTT12=
PLAYORDER=
